<svg preserveAspectRatio="none" width="100%" height="100%" overflow="visible" style="display: block;" viewBox="0 0 32 32" fill="none" xmlns="http://www.w3.org/2000/svg">
<g id="Icon" opacity="0.9">
<path id="Vector" d="M11.3333 19.3333C12.2174 19.3333 13.0652 18.9821 13.6904 18.357C14.3155 17.7319 14.6667 16.8841 14.6667 16C14.6667 14.16 14 13.3333 13.3333 12C11.904 9.14267 13.0347 6.59467 16 4C16.6667 7.33333 18.6667 10.5333 21.3333 12.6667C24 14.8 25.3333 17.3333 25.3333 20C25.3333 21.2257 25.0919 22.4393 24.6229 23.5717C24.1538 24.7041 23.4663 25.733 22.5997 26.5997C21.733 27.4663 20.7041 28.1538 19.5717 28.6229C18.4393 29.0919 17.2257 29.3333 16 29.3333C14.7743 29.3333 13.5607 29.0919 12.4283 28.6229C11.2959 28.1538 10.267 27.4663 9.40034 26.5997C8.53366 25.733 7.84617 24.7041 7.37712 23.5717C6.90808 22.4393 6.66667 21.2257 6.66667 20C6.66667 18.4627 7.244 16.9413 8 16C8 16.8841 8.35119 17.7319 8.97631 18.357C9.60143 18.9821 10.4493 19.3333 11.3333 19.3333Z" stroke="var(--stroke-0, #7A7AFF)" stroke-width="2" stroke-linecap="round" stroke-linejoin="round"/>
</g>
</svg>
