<svg preserveAspectRatio="none" width="100%" height="100%" overflow="visible" style="display: block;" viewBox="0 0 32 32" fill="none" xmlns="http://www.w3.org/2000/svg">
<g id="Icon" opacity="0.9">
<path id="Vector" d="M2.74933 16.464C2.63821 16.1646 2.63821 15.8354 2.74933 15.536C3.8316 12.9118 5.66869 10.6681 8.02769 9.0892C10.3867 7.51034 13.1614 6.66749 16 6.66749C18.8386 6.66749 21.6133 7.51034 23.9723 9.0892C26.3313 10.6681 28.1684 12.9118 29.2507 15.536C29.3618 15.8354 29.3618 16.1646 29.2507 16.464C28.1684 19.0882 26.3313 21.3319 23.9723 22.9108C21.6133 24.4897 18.8386 25.3325 16 25.3325C13.1614 25.3325 10.3867 24.4897 8.02769 22.9108C5.66869 21.3319 3.8316 19.0882 2.74933 16.464Z" stroke="var(--stroke-0, #7A7AFF)" stroke-width="2" stroke-linecap="round" stroke-linejoin="round"/>
<path id="Vector_2" d="M16 20C18.2091 20 20 18.2091 20 16C20 13.7909 18.2091 12 16 12C13.7909 12 12 13.7909 12 16C12 18.2091 13.7909 20 16 20Z" stroke="var(--stroke-0, #7A7AFF)" stroke-width="2" stroke-linecap="round" stroke-linejoin="round"/>
</g>
</svg>
