<svg preserveAspectRatio="none" width="100%" height="100%" overflow="visible" style="display: block;" viewBox="0 0 32 32" fill="none" xmlns="http://www.w3.org/2000/svg">
<g id="Icon" opacity="0.9">
<path id="Vector" d="M15.416 4.35467C15.4736 4.25014 15.5581 4.16298 15.6608 4.10227C15.7635 4.04156 15.8807 4.00954 16 4.00954C16.1193 4.00954 16.2365 4.04156 16.3392 4.10227C16.4419 4.16298 16.5265 4.25014 16.584 4.35467L20.52 11.8267C20.6139 11.9997 20.7449 12.1498 20.9036 12.2662C21.0624 12.3825 21.2449 12.4623 21.4381 12.4998C21.6314 12.5373 21.8305 12.5315 22.0212 12.4829C22.212 12.4343 22.3896 12.3441 22.5413 12.2187L28.244 7.33333C28.3535 7.2443 28.4884 7.19229 28.6293 7.1848C28.7702 7.17731 28.9098 7.21473 29.0281 7.29166C29.1464 7.3686 29.2373 7.48108 29.2875 7.61292C29.3378 7.74476 29.345 7.88916 29.308 8.02533L25.5293 21.6867C25.4522 21.9662 25.286 22.213 25.056 22.3896C24.826 22.5662 24.5447 22.663 24.2547 22.6653H7.74667C7.45645 22.6633 7.17481 22.5666 6.94452 22.39C6.71423 22.2134 6.54786 21.9664 6.47067 21.6867L2.69333 8.02667C2.65633 7.8905 2.66349 7.7461 2.71379 7.61425C2.76408 7.48241 2.85491 7.36993 2.9732 7.29299C3.09149 7.21606 3.23114 7.17865 3.37205 7.18613C3.51296 7.19362 3.64786 7.24563 3.75733 7.33467L9.45867 12.22C9.6104 12.3454 9.78801 12.4356 9.97875 12.4842C10.1695 12.5328 10.3686 12.5386 10.5619 12.5011C10.7551 12.4637 10.9376 12.3839 11.0964 12.2675C11.2551 12.1511 11.3861 12.001 11.48 11.828L15.416 4.35467Z" stroke="var(--stroke-0, #7A7AFF)" stroke-width="2" stroke-linecap="round" stroke-linejoin="round"/>
<path id="Vector_2" d="M6.66667 28H25.3333" stroke="var(--stroke-0, #7A7AFF)" stroke-width="2" stroke-linecap="round" stroke-linejoin="round"/>
</g>
</svg>
