<svg width="162" height="34" viewBox="0 0 162 34" fill="none" xmlns="http://www.w3.org/2000/svg">
<g clip-path="url(#clip0_6960_22193)">
<path d="M129.795 22.9996C129.795 24.0996 129.795 25.0996 129.795 26.1996C126.895 26.1996 123.995 26.1996 121.095 26.1996C121.095 27.1996 121.095 28.1996 121.095 29.1996C124.895 29.1996 128.595 29.1996 132.395 29.1996C132.395 30.2996 132.395 31.2996 132.395 32.3996C132.295 32.3996 132.095 32.3996 131.995 32.3996C123.395 32.3996 114.895 32.3996 106.295 32.3996C105.595 32.3996 105.595 32.3996 105.595 31.6996C105.595 30.8996 105.595 29.9996 105.595 29.1996C109.595 29.1996 113.595 29.1996 117.595 29.1996C117.595 28.1996 117.595 27.1996 117.595 26.0996C114.695 26.0996 111.895 26.0996 108.995 26.0996C108.995 24.9996 108.995 23.9996 108.995 22.8996C111.895 22.8996 114.695 22.8996 117.595 22.8996C117.595 22.0996 117.595 21.2996 117.595 20.3996C116.995 20.3996 116.395 20.4996 115.795 20.4996C114.095 20.5996 112.295 20.6996 110.595 20.7996C110.195 20.7996 109.795 20.7996 109.395 20.8996C109.295 20.8996 109.195 20.9996 109.095 21.0996C108.595 21.7996 108.195 22.3996 107.695 23.0996C107.595 23.2996 107.495 23.2996 107.295 23.1996C106.495 22.7996 105.595 22.4996 104.795 22.0996C104.795 22.0996 104.695 22.0996 104.695 21.9996C106.395 19.6996 107.895 17.1996 108.895 14.4996C109.995 14.6996 110.995 14.8996 112.095 15.1996C111.695 16.0996 111.295 16.8996 110.895 17.7996C113.095 17.6996 115.295 17.4996 117.595 17.3996C117.595 16.2996 117.595 15.1996 117.595 14.0996C118.795 14.0996 119.895 14.0996 120.995 14.0996C120.995 15.0996 120.995 16.1996 120.995 17.1996C124.195 16.9996 127.295 16.6996 130.495 16.4996C130.495 17.4996 130.495 18.5996 130.495 19.6996C127.295 19.8996 124.195 20.0996 120.995 20.2996C120.995 21.1996 120.995 21.9996 120.995 22.8996C123.895 22.9996 126.795 22.9996 129.795 22.9996Z" fill="white"/>
<path d="M107.898 1.5C109.898 1.5 111.898 1.5 113.898 1.5C119.498 1.5 125.098 1.5 130.698 1.5C130.898 1.5 130.998 1.5 130.998 1.7C130.998 5.6 130.998 9.5 130.998 13.5V13.6C123.298 13.6 115.598 13.6 107.898 13.6C107.898 9.6 107.898 5.6 107.898 1.5ZM111.298 10.4C116.798 10.4 122.198 10.4 127.698 10.4C127.698 8.5 127.698 6.6 127.698 4.7C122.198 4.7 116.798 4.7 111.298 4.7C111.298 5.1 111.298 5.5 111.298 6C116.098 6 120.798 6 125.598 6C125.598 7.1 125.598 8.1 125.598 9.2C120.798 9.2 116.098 9.2 111.298 9.2C111.298 9.6 111.298 10 111.298 10.4Z" fill="white"/>
<path d="M59.2984 12.4C59.2984 12.8 59.3984 13.2 59.3984 13.6C59.2984 15.9 59.1984 18.2 59.0984 20.5C59.0984 21.3 58.8984 22 58.4984 22.7C57.9984 23.7 57.1984 24.2 56.0984 24.3C55.0984 24.4 54.0984 24.3 53.0984 24.3C52.9984 24.3 52.8984 24.2 52.8984 24.1C52.6984 23.2 52.5984 22.3 52.3984 21.3C52.6984 21.3 52.9984 21.3 53.2984 21.3C53.7984 21.3 54.1984 21.3 54.6984 21.3C55.0984 21.3 55.4984 21.1 55.5984 20.7C55.7984 20.2 55.8984 19.6 55.8984 19.1C55.9984 17.8 55.9984 16.4 56.0984 15.1C56.0984 15 56.0984 15 56.0984 14.9C54.2984 14.9 52.3984 14.9 50.5984 14.9C50.5984 15 50.5984 15.1 50.5984 15.1C50.5984 19.3 50.5984 23.4 50.5984 27.6C50.5984 27.8 50.5984 28.1 50.6984 28.3C50.7984 29 51.1984 29.4 51.8984 29.4C53.4984 29.4 55.0984 29.4 56.5984 29.4C57.1984 29.4 57.6984 29.1 57.8984 28.5C58.0984 27.7 58.1984 27 58.2984 26.2C58.3984 25.9 58.3984 25.6 58.3984 25.2C58.6984 25.3 58.8984 25.3 59.0984 25.4C59.7984 25.6 60.4984 25.8 61.1984 26C61.2984 26 61.3984 26.1 61.3984 26.2C61.2984 27.5 61.2984 28.8 60.7984 30.1C60.1984 31.8 58.8984 32.6 57.0984 32.7C55.0984 32.8 53.1984 32.7 51.1984 32.7C50.4984 32.7 49.6984 32.5 49.0984 32.2C47.7984 31.5 47.2984 30.4 47.1984 29.1C47.0984 27.7 47.0984 26.4 47.1984 25C47.1984 21.1 47.1984 17.1 47.1984 13.2C47.1984 13.1 47.1984 13.1 47.1984 13C46.7984 13.4 46.3984 13.7 45.9984 14C45.2984 13.2 44.5984 12.4 43.8984 11.5C44.2984 11.1 44.7984 10.6 45.1984 10.2C47.9984 7.2 50.0984 3.8 51.6984 0C51.7984 0.1 51.7984 0 51.9984 0C52.9984 0.2 54.0984 0.3 55.0984 0.5C55.0984 0.5 55.1984 0.5 55.2984 0.6C55.1984 1 54.9984 1.4 54.7984 1.9C54.7984 2 54.7984 2.1 54.7984 2.1C55.7984 3.1 56.6984 4.1 57.6984 5.1C59.1984 6.7 60.4984 8.5 61.6984 10.3C61.7984 10.4 61.7984 10.5 61.6984 10.6C60.8984 11.2 60.1984 11.8 59.3984 12.3L59.2984 12.4ZM58.9984 12.2C57.2984 9.6 55.3984 7.3 53.2984 5C51.8984 7.5 50.2984 9.8 48.2984 12C48.4984 12 48.4984 12 48.5984 12C51.2984 12 53.9984 12 56.6984 12C57.3984 11.9 58.1984 11.9 58.9984 12.2Z" fill="white"/>
<path d="M63.3984 30.0004C64.3984 30.0004 65.3984 30.0004 66.3984 30.0004C66.6984 30.0004 66.9984 30.0004 67.1984 29.9004C67.7984 29.8004 68.0984 29.5004 68.1984 29.0004C68.2984 28.7004 68.2984 28.3004 68.2984 28.0004C68.2984 22.9004 68.2984 17.7004 68.2984 12.6004C68.2984 8.60039 68.2984 4.70039 68.2984 0.700391C68.2984 0.600391 68.2984 0.500391 68.2984 0.400391C69.3984 0.400391 70.4984 0.400391 71.6984 0.400391C71.6984 0.500391 71.6984 0.600391 71.6984 0.800391C71.6984 9.90039 71.6984 18.9004 71.6984 28.0004C71.6984 28.9004 71.6984 29.8004 71.4984 30.7004C71.1984 31.7004 70.5984 32.4004 69.5984 32.9004C68.6984 33.3004 67.7984 33.4004 66.8984 33.4004C65.9984 33.4004 65.0984 33.4004 64.1984 33.4004C63.9984 33.4004 63.8984 33.4004 63.8984 33.2004C63.7984 32.1004 63.5984 31.1004 63.3984 30.0004Z" fill="white"/>
<path d="M62.3969 3.40039C63.4969 3.40039 64.5969 3.40039 65.6969 3.40039C65.6969 10.5004 65.6969 17.6004 65.6969 24.8004C65.4969 24.8004 65.2969 24.8004 64.9969 24.8004C64.1969 24.8004 63.3969 24.8004 62.5969 24.8004C62.3969 24.8004 62.2969 24.7004 62.2969 24.5004C62.2969 19.4004 62.2969 14.4004 62.2969 9.30039C62.2969 7.40039 62.2969 5.50039 62.2969 3.70039C62.3969 3.50039 62.3969 3.50039 62.3969 3.40039Z" fill="white"/>
<path d="M148.903 25.3994C148.903 25.7994 148.903 26.1994 148.903 26.6994C152.603 26.6994 156.303 26.6994 160.003 26.6994C160.003 27.5994 160.003 28.4994 160.003 29.4994C156.303 29.4994 152.603 29.4994 148.803 29.4994C148.803 29.8994 148.803 30.1994 148.803 30.5994C148.603 32.1994 147.303 33.5994 145.703 33.7994C144.703 33.8994 143.603 33.8994 142.603 33.8994C142.403 33.8994 142.203 33.8994 142.003 33.8994C142.003 32.9994 142.003 31.9994 142.003 31.0994C142.103 31.0994 142.203 31.0994 142.303 31.0994C142.903 31.0994 143.503 31.0994 144.103 31.0994C145.103 31.0994 145.403 30.3994 145.303 29.5994C145.203 29.5994 145.103 29.5994 145.003 29.5994C141.403 29.5994 137.903 29.5994 134.303 29.5994C133.703 29.5994 133.703 29.5994 133.703 28.9994C133.703 28.3994 133.703 27.7994 133.703 27.0994C133.703 26.9994 133.703 26.8994 133.703 26.7994C137.603 26.7994 141.403 26.7994 145.203 26.7994C145.203 26.3994 145.203 25.9994 145.203 25.4994C145.103 25.4994 145.003 25.4994 144.903 25.4994C142.103 25.4994 139.403 25.4994 136.603 25.4994C136.503 25.4994 136.403 25.4994 136.403 25.2994C136.403 24.4994 136.403 23.5994 136.403 22.7994C139.303 22.7994 142.303 22.7994 145.203 22.7994C145.203 22.2994 145.203 21.7994 145.203 21.1994C142.103 21.2994 139.003 21.4994 135.903 21.5994C135.903 20.6994 135.903 19.8994 135.903 19.0994C143.103 18.6994 150.303 18.2994 157.503 17.8994C157.503 17.9994 157.503 18.1994 157.503 18.3994C157.503 19.0994 157.503 19.6994 157.503 20.3994C157.503 20.5994 157.503 20.6994 157.303 20.6994C155.803 20.7994 154.303 20.8994 152.803 20.9994C151.403 21.0994 150.103 21.1994 148.703 21.2994C148.703 21.8994 148.703 22.3994 148.703 22.9994C148.803 22.9994 148.903 22.9994 149.103 22.9994C151.703 22.9994 154.203 22.9994 156.803 22.9994C157.203 22.9994 157.203 22.9994 157.203 23.3994C157.203 24.0994 157.203 24.7994 157.203 25.4994C157.203 25.6994 157.203 25.7994 156.903 25.7994C154.303 25.7994 151.703 25.7994 149.103 25.7994C149.203 25.3994 149.103 25.3994 148.903 25.3994Z" fill="white"/>
<path d="M160.803 2.2998C160.803 3.2998 160.803 4.2998 160.803 5.2998C160.403 5.2998 160.103 5.2998 159.703 5.2998C159.303 7.9998 158.403 10.3998 156.603 12.4998C158.103 13.8998 159.903 14.8998 161.703 15.8998C161.503 16.1998 161.303 16.3998 161.103 16.6998C160.703 17.1998 160.303 17.7998 159.903 18.2998C159.803 18.3998 159.703 18.4998 159.603 18.3998C157.903 17.4998 156.303 16.4998 154.803 15.1998C154.603 15.0998 154.503 14.8998 154.303 14.6998C152.703 16.0998 150.803 16.9998 148.803 17.7998C148.803 17.6998 148.703 17.6998 148.703 17.5998C148.503 16.7998 148.203 16.0998 148.003 15.2998C147.903 15.0998 148.003 14.9998 148.203 14.8998C149.503 14.1998 150.803 13.4998 152.003 12.5998C152.103 12.4998 152.203 12.3998 152.303 12.2998C151.303 10.9998 150.603 9.5998 150.003 7.9998H149.903C149.703 8.2998 149.503 8.2998 149.103 8.1998C148.603 7.9998 148.203 7.7998 147.703 7.5998C148.303 6.2998 148.903 4.9998 149.403 3.5998C149.803 2.3998 150.103 1.1998 150.503 -0.00019531C150.503 -0.100195 150.603 -0.200195 150.703 -0.200195C151.703 -0.200195 152.703 -0.200195 153.703 -0.200195C153.503 0.599805 153.303 1.2998 153.103 2.0998C155.803 2.2998 158.303 2.2998 160.803 2.2998ZM156.603 5.3998C156.503 5.2998 156.503 5.2998 156.603 5.3998C155.103 5.3998 153.703 5.3998 152.303 5.3998C152.203 5.3998 152.103 5.4998 152.103 5.4998C151.903 5.7998 151.803 5.9998 151.603 6.3998C151.903 6.2998 152.203 6.1998 152.503 5.9998C152.903 7.5998 153.603 9.0998 154.603 10.3998C155.703 8.7998 156.203 7.0998 156.603 5.3998Z" fill="white"/>
<path d="M133.102 9.89961C133.602 9.19961 134.102 8.59961 134.502 7.89961C135.002 7.19961 135.402 6.39961 135.802 5.69961C135.802 5.59961 136.002 5.59961 136.002 5.59961C136.902 5.59961 137.802 5.69961 138.802 5.69961C138.702 5.89961 138.502 6.09961 138.402 6.39961C138.502 6.39961 138.602 6.39961 138.702 6.39961C140.902 6.39961 143.102 6.39961 145.402 6.39961C146.202 6.39961 146.902 6.69961 147.402 7.39961C147.602 7.69961 147.702 8.19961 147.802 8.59961C147.902 9.49961 147.802 10.4996 147.802 11.3996C147.802 12.4996 147.802 13.5996 147.802 14.6996C147.802 15.6996 147.502 16.5996 146.602 17.2996C146.102 17.6996 145.502 17.7996 144.902 17.8996C144.502 17.8996 144.102 17.9996 143.702 17.9996C143.602 17.9996 143.502 17.9996 143.502 17.7996C143.502 17.0996 143.502 16.3996 143.502 15.6996C143.502 15.5996 143.602 15.4996 143.702 15.4996C143.802 15.3996 144.002 15.3996 144.102 15.3996C144.502 15.2996 144.702 14.9996 144.702 14.5996C144.702 12.9996 144.702 11.3996 144.702 9.69961C144.702 9.29961 144.602 9.19961 144.202 9.19961C143.502 9.19961 142.802 9.19961 142.102 9.19961C140.502 9.19961 139.002 9.19961 137.402 9.19961C137.102 9.19961 136.902 9.29961 136.702 9.49961C136.402 9.89961 136.102 10.2996 135.802 10.5996C135.702 10.6996 135.602 10.6996 135.502 10.6996C134.602 10.4996 133.802 10.1996 133.102 9.89961Z" fill="white"/>
<path d="M139.799 4.39961C139.799 4.79961 139.799 5.09961 139.799 5.49961C138.799 5.49961 137.699 5.49961 136.699 5.49961C136.699 5.09961 136.699 4.79961 136.699 4.39961C136.599 4.39961 136.499 4.39961 136.399 4.39961C135.599 4.39961 134.699 4.39961 133.899 4.39961C133.799 4.39961 133.599 4.39961 133.699 4.19961C133.699 3.29961 133.699 2.49961 133.699 1.59961C134.699 1.59961 135.699 1.59961 136.699 1.59961C136.699 1.09961 136.699 0.599609 136.699 0.0996094C137.799 0.0996094 138.799 0.0996094 139.799 0.0996094C139.799 0.599609 139.799 1.09961 139.799 1.59961C140.099 1.59961 140.299 1.59961 140.499 1.59961C141.199 1.59961 141.799 1.59961 142.499 1.59961C142.799 1.59961 142.799 1.49961 142.799 1.29961C142.799 0.899609 142.799 0.499609 142.799 0.0996094C143.799 0.0996094 144.799 0.0996094 145.899 0.0996094C145.899 0.599609 145.899 1.09961 145.899 1.59961C146.899 1.59961 147.899 1.59961 148.799 1.59961C148.799 2.49961 148.799 3.49961 148.799 4.39961C147.799 4.39961 146.899 4.39961 145.899 4.39961C145.899 4.79961 145.899 5.09961 145.899 5.49961C144.899 5.49961 143.899 5.49961 142.799 5.49961C142.799 5.09961 142.799 4.79961 142.799 4.39961C141.699 4.39961 140.799 4.39961 139.799 4.39961Z" fill="white"/>
<path d="M139.903 17.2996C139.103 17.2996 138.203 17.2996 137.403 17.2996C137.103 17.2996 136.703 17.1996 136.403 17.0996C135.603 16.7996 135.203 16.0996 135.203 15.1996C135.203 14.1996 135.203 13.1996 135.203 12.1996C135.203 11.2996 136.203 10.2996 137.203 10.1996C138.103 10.0996 139.103 10.1996 140.003 10.0996C140.703 10.0996 141.403 10.0996 142.103 10.0996C142.903 10.0996 143.303 10.4996 143.303 11.2996C143.403 13.0996 143.403 14.9996 143.003 16.7996C142.903 17.2996 142.903 17.2996 142.403 17.2996C141.603 17.2996 140.703 17.2996 139.903 17.2996ZM140.803 12.7996C139.903 12.7996 139.003 12.7996 138.103 12.7996C138.103 12.7996 138.003 12.8996 138.003 12.9996C138.003 13.3996 138.003 13.8996 138.003 14.2996C138.003 14.4996 138.103 14.5996 138.303 14.5996C138.903 14.5996 139.403 14.5996 140.003 14.5996C140.303 14.5996 140.603 14.5996 140.903 14.5996C140.803 13.9996 140.803 13.3996 140.803 12.7996Z" fill="white"/>
<path d="M84.2969 31.1998C84.3969 31.0998 84.4969 31.0998 84.4969 30.9998C86.1969 29.6998 87.7969 28.1998 89.0969 26.3998C90.9969 23.8998 92.1969 20.9998 92.5969 17.8998C92.9969 15.2998 92.8969 12.6998 92.8969 10.0998C92.8969 9.0998 92.8969 7.9998 92.8969 6.9998C92.8969 6.8998 92.8969 6.8998 92.8969 6.7998C93.9969 6.7998 95.0969 6.7998 96.1969 6.7998C96.0969 11.2998 96.4969 15.7998 95.3969 20.2998C95.8969 20.2998 96.3969 20.2998 96.8969 20.2998C97.1969 20.2998 97.1969 20.3998 97.1969 20.5998C97.1969 23.0998 97.1969 25.4998 97.1969 27.9998C97.1969 28.3998 97.1969 28.7998 97.2969 29.1998C97.3969 29.5998 97.6969 29.8998 98.0969 29.8998C98.5969 29.8998 99.0969 29.8998 99.5969 29.8998C100.097 29.8998 100.497 29.5998 100.597 29.0998C100.697 28.2998 100.797 27.3998 100.897 26.5998C100.897 25.9998 100.897 25.3998 100.897 24.7998C100.897 24.6998 100.897 24.6998 100.897 24.5998C100.997 24.5998 101.097 24.6998 101.297 24.6998C101.997 24.8998 102.697 25.0998 103.397 25.2998C103.597 25.3998 103.697 25.3998 103.697 25.5998C103.697 26.5998 103.597 27.6998 103.597 28.6998C103.597 29.1998 103.497 29.7998 103.397 30.2998C102.997 31.9998 101.997 32.8998 100.197 32.8998C99.1969 32.8998 98.1969 32.8998 97.0969 32.7998C95.9969 32.6998 95.0969 32.2998 94.4969 31.2998C94.1969 30.6998 93.9969 29.9998 93.9969 29.2998C93.9969 27.6998 93.9969 26.0998 93.9969 24.4998C93.9969 24.3998 93.9969 24.2998 93.9969 24.1998C93.8969 24.2998 93.8969 24.3998 93.8969 24.3998C92.9969 26.2998 91.8969 28.0998 90.4969 29.6998C89.3969 30.9998 88.0969 32.0998 86.7969 33.1998C86.5969 33.2998 86.5969 33.2998 86.3969 33.1998C85.6969 32.4998 84.9969 31.7998 84.2969 31.0998C84.2969 31.1998 84.2969 31.1998 84.2969 31.1998Z" fill="white"/>
<path d="M90.5016 4.59941C90.5016 10.0994 90.5016 15.4994 90.5016 20.8994C89.4016 20.8994 88.3016 20.8994 87.1016 20.8994C87.1016 20.7994 87.1016 20.6994 87.1016 20.5994C87.1016 14.7994 87.1016 8.99941 87.1016 3.19941C87.1016 2.89941 87.1016 2.69941 87.2016 2.39941C87.3016 1.89941 87.6016 1.59941 88.1016 1.49941C88.4016 1.39941 88.7016 1.39941 88.9016 1.39941C92.7016 1.39941 96.6016 1.39941 100.402 1.39941C100.702 1.39941 100.902 1.39941 101.202 1.49941C101.902 1.59941 102.202 1.99941 102.202 2.69941C102.202 3.49941 102.202 4.39941 102.202 5.19941C102.202 10.3994 102.202 15.4994 102.202 20.6994C102.202 20.6994 102.202 20.7994 102.202 20.8994C101.102 20.8994 100.002 20.8994 98.8016 20.8994C98.8016 15.4994 98.8016 9.99941 98.8016 4.59941C96.1016 4.59941 93.3016 4.59941 90.5016 4.59941Z" fill="white"/>
<path d="M79.0984 20.1002C78.1984 21.0002 77.2984 21.9002 76.2984 22.7002C75.6984 21.8002 75.0984 20.9002 74.3984 19.9002C77.8984 17.1002 80.3984 13.6002 81.8984 9.4002C79.7984 9.4002 77.7984 9.4002 75.6984 9.4002C75.6984 8.3002 75.6984 7.3002 75.6984 6.2002C75.7984 6.2002 75.8984 6.2002 75.8984 6.2002C78.4984 6.2002 81.1984 6.2002 83.7984 6.2002C84.0984 6.2002 84.4984 6.2002 84.7984 6.3002C85.3984 6.4002 85.7984 6.9002 85.6984 7.5002C85.6984 8.0002 85.4984 8.6002 85.3984 9.1002C84.7984 11.1002 83.9984 13.0002 82.8984 14.8002C82.7984 15.0002 82.8984 15.0002 82.9984 15.1002C84.2984 16.6002 85.5984 18.1002 86.6984 19.9002C86.6984 19.9002 86.6984 19.9002 86.6984 20.0002C85.9984 20.6002 85.1984 21.2002 84.4984 21.8002C83.7984 20.8002 83.0984 19.8002 82.3984 18.9002C82.3984 18.9002 82.3984 18.9002 82.2984 18.9002C82.2984 23.8002 82.2984 28.7002 82.2984 33.6002C81.1984 33.6002 80.0984 33.6002 78.9984 33.6002C79.0984 29.0002 79.0984 24.5002 79.0984 20.1002Z" fill="white"/>
<path d="M83.4953 4.89984C82.4953 5.29984 81.4953 5.69984 80.4953 6.09984C79.8953 4.39984 79.0953 2.79984 78.1953 1.19984C78.8953 0.899837 79.5953 0.599837 80.2953 0.399837C80.4953 0.299837 80.6953 0.299837 80.7953 0.199837C80.9953 -0.000162698 81.1953 0.0998373 81.2953 0.299837C82.1953 1.69984 82.8953 3.29984 83.4953 4.89984Z" fill="white"/>
<path d="M0 0V7.9L13 16.3L29.6 27V30.5L12 19.1L10.9 19.8L0 26.9V33.5L15.4 23.5L31.4 33.9V28.2V28.1V26L19.1 18L1.8 6.8V3.4L19.1 14.6L20.8 13.5L31.4 6.6V0L15.7 10.2L0 0Z" fill="white"/>
</g>
<defs>
<clipPath id="clip0_6960_22193">
<rect width="161.8" height="33.9" fill="white"/>
</clipPath>
</defs>
</svg>
